<svg width="130" height="206" viewBox="0 0 130 206" fill="none" xmlns="http://www.w3.org/2000/svg">
<circle cx="65" cy="103" r="65" fill="#FD8FA1"/>
<path d="M62.52 68L83.976 67.568C87.336 67.568 89.784 68.24 91.32 69.584C92.856 70.928 93.624 73.04 93.624 75.92C93.624 78.704 91.992 82.064 88.728 86C85.56 89.936 81.864 93.776 77.64 97.52C73.512 101.168 69.192 105.584 64.68 110.768C60.264 115.952 57.096 120.704 55.176 125.024C58.632 125.6 62.808 125.888 67.704 125.888C78.648 125.888 86.664 124.4 91.752 121.424C93 123.92 93.624 126.752 93.624 129.92C93.624 133.088 92.52 135.728 90.312 137.84C88.104 139.856 85.368 140.864 82.104 140.864C78.936 140.864 74.088 140.528 67.56 139.856C61.128 139.088 56.136 138.704 52.584 138.704C49.032 138.704 43.8 139.136 36.888 140C35.736 138.08 35.16 135.824 35.16 133.232C35.16 128.912 38.04 123.248 43.8 116.24C49.56 109.136 55.992 101.984 63.096 94.784C70.2 87.488 74.568 82.256 76.2 79.088C74.76 79.376 72.456 79.904 69.288 80.672C66.12 81.344 63.624 81.872 61.8 82.256C57 83.312 52.584 83.84 48.552 83.84C44.52 83.84 41.4 82.976 39.192 81.248C37.08 79.424 36.024 76.88 36.024 73.616C36.024 70.256 36.648 67.664 37.896 65.84C44.04 67.28 52.248 68 62.52 68Z" fill="#FD8FA1"/>
<path d="M62.52 68V77H62.6106L62.7012 76.9982L62.52 68ZM83.976 67.568V58.568H83.8854L83.7948 58.5698L83.976 67.568ZM88.728 86L81.8002 80.255L81.7582 80.3056L81.7169 80.3569L88.728 86ZM77.64 97.52L83.5998 104.264L83.6098 104.255L77.64 97.52ZM64.68 110.768L57.8913 104.859L57.8598 104.895L57.8288 104.932L64.68 110.768ZM55.176 125.024L46.9517 121.369L42.2309 131.991L53.6964 133.902L55.176 125.024ZM91.752 121.424L99.8018 117.399L95.5038 108.803L87.2081 113.655L91.752 121.424ZM90.312 137.84L96.3804 144.486L96.4575 144.416L96.533 144.344L90.312 137.84ZM67.56 139.856L66.493 148.793L66.5656 148.801L66.6384 148.809L67.56 139.856ZM36.888 140L29.1706 144.63L32.1869 149.658L38.0043 148.931L36.888 140ZM43.8 116.24L50.7529 121.955L50.7719 121.932L50.7908 121.908L43.8 116.24ZM63.096 94.784L69.5025 101.105L69.5235 101.084L69.5442 101.063L63.096 94.784ZM76.2 79.088L84.2008 83.2096L92.7582 66.5981L74.435 70.2628L76.2 79.088ZM69.288 80.672L71.1555 89.4761L71.2824 89.4492L71.4084 89.4186L69.288 80.672ZM61.8 82.256L59.9459 73.449L59.906 73.4574L59.8662 73.4662L61.8 82.256ZM39.192 81.248L33.3094 88.0594L33.474 88.2015L33.6452 88.3355L39.192 81.248ZM37.896 65.84L39.9497 57.0774L33.9487 55.671L30.4682 60.7578L37.896 65.84ZM62.7012 76.9982L84.1572 76.5662L83.7948 58.5698L62.3388 59.0018L62.7012 76.9982ZM83.976 76.568C85.0941 76.568 85.7056 76.684 85.9496 76.7509C86.1753 76.8129 85.8661 76.7708 85.3935 76.3572L97.2465 62.8108C93.2958 59.3539 88.2019 58.568 83.976 58.568V76.568ZM85.3935 76.3572C85.1702 76.1618 84.9837 75.9445 84.8396 75.7283C84.6978 75.5157 84.6235 75.3441 84.5899 75.2517C84.5305 75.0883 84.624 75.2478 84.624 75.92H102.624C102.624 71.5477 101.436 66.4762 97.2465 62.8108L85.3935 76.3572ZM84.624 75.92C84.624 75.5668 84.7189 75.7426 84.3044 76.5959C83.8951 77.4386 83.1279 78.6539 81.8002 80.255L95.6558 91.745C99.2709 87.3856 102.624 81.953 102.624 75.92H84.624ZM81.7169 80.3569C78.899 83.8579 75.5603 87.3369 71.6702 90.7849L83.6098 104.255C88.1677 100.215 92.221 96.0141 95.7391 91.6431L81.7169 80.3569ZM71.6802 90.776C67.1965 94.7384 62.601 99.4481 57.8913 104.859L71.4687 116.677C75.783 111.72 79.8275 107.598 83.5998 104.264L71.6802 90.776ZM57.8288 104.932C53.0766 110.51 49.3393 115.997 46.9517 121.369L63.4003 128.679C64.8527 125.411 67.4514 121.394 71.5312 116.604L57.8288 104.932ZM53.6964 133.902C57.7908 134.584 62.4911 134.888 67.704 134.888V116.888C63.1249 116.888 59.4732 116.616 56.6556 116.146L53.6964 133.902ZM67.704 134.888C79.0873 134.888 89.0903 133.407 96.296 129.193L87.2081 113.655C84.2377 115.393 78.2087 116.888 67.704 116.888V134.888ZM83.7022 125.449C84.2455 126.536 84.624 127.959 84.624 129.92H102.624C102.624 125.545 101.755 121.304 99.8018 117.399L83.7022 125.449ZM84.624 129.92C84.624 130.733 84.4518 130.991 84.091 131.336L96.533 144.344C100.588 140.465 102.624 135.443 102.624 129.92H84.624ZM84.2436 131.194C83.8519 131.551 83.346 131.864 82.104 131.864V149.864C87.3901 149.864 92.3561 148.161 96.3804 144.486L84.2436 131.194ZM82.104 131.864C79.4214 131.864 74.9548 131.57 68.4816 130.903L66.6384 148.809C73.2212 149.486 78.4506 149.864 82.104 149.864V131.864ZM68.627 130.919C62.0782 130.138 56.6708 129.704 52.584 129.704V147.704C55.6012 147.704 60.1778 148.038 66.493 148.793L68.627 130.919ZM52.584 129.704C48.4553 129.704 42.7738 130.194 35.7717 131.069L38.0043 148.931C44.8262 148.078 49.6087 147.704 52.584 147.704V129.704ZM44.6054 135.37C44.4175 135.056 44.16 134.454 44.16 133.232H26.16C26.16 137.194 27.0545 141.104 29.1706 144.63L44.6054 135.37ZM44.16 133.232C44.16 132.32 45.1156 128.813 50.7529 121.955L36.8471 110.525C30.9644 117.683 26.16 125.504 26.16 133.232H44.16ZM50.7908 121.908C56.3487 115.054 62.5826 108.119 69.5025 101.105L56.6895 88.4629C49.4014 95.8494 42.7713 103.218 36.8092 110.572L50.7908 121.908ZM69.5442 101.063C76.5169 93.9015 81.8583 87.7568 84.2008 83.2096L68.1992 74.9664C67.2777 76.7552 63.8832 81.0745 56.6478 88.5054L69.5442 101.063ZM74.435 70.2628C72.8029 70.5892 70.3472 71.1545 67.1676 71.9253L71.4084 89.4186C74.5648 88.6535 76.7171 88.1628 77.965 87.9132L74.435 70.2628ZM67.4205 71.8679C64.2542 72.5395 61.7633 73.0664 59.9459 73.449L63.6541 91.0629C65.4847 90.6776 67.9858 90.1485 71.1555 89.4761L67.4205 71.8679ZM59.8662 73.4662C55.5687 74.4117 51.8106 74.84 48.552 74.84V92.84C53.3574 92.84 58.4313 92.2123 63.7338 91.0458L59.8662 73.4662ZM48.552 74.84C45.6754 74.84 44.8008 74.209 44.7388 74.1605L33.6452 88.3355C37.9992 91.743 43.3646 92.84 48.552 92.84V74.84ZM45.0746 74.4366C45.0535 74.4184 45.0665 74.4265 45.0915 74.461C45.1168 74.4958 45.1285 74.5221 45.1283 74.5216C45.1271 74.5186 45.1022 74.4587 45.0768 74.319C45.0509 74.1766 45.024 73.948 45.024 73.616H27.024C27.024 79.0052 28.8747 84.2294 33.3094 88.0594L45.0746 74.4366ZM45.024 73.616C45.024 72.4709 45.1325 71.7133 45.242 71.2585C45.3493 70.813 45.4307 70.7658 45.3238 70.9221L30.4682 60.7578C27.7906 64.6714 27.024 69.3254 27.024 73.616H45.024ZM35.8423 74.6025C42.9454 76.2673 51.9299 77 62.52 77V59C52.5661 59 45.1346 58.2927 39.9497 57.0774L35.8423 74.6025Z" fill="white"/>
</svg>
